<svg width="291" height="322" viewBox="0 0 291 322" fill="none" xmlns="http://www.w3.org/2000/svg">
<circle cx="144.5" cy="201.5" r="118.5" fill="white" stroke="#094780" stroke-width="4"/>
<path fill-rule="evenodd" clip-rule="evenodd" d="M92.7263 136.619C91.0542 134.978 88.7633 133.967 86.236 133.967C81.1168 133.967 76.9668 138.117 76.9668 143.236C76.9668 148.356 81.1168 152.506 86.236 152.506C88.7633 152.506 91.0542 151.494 92.7263 149.854C92.7695 149.856 92.8132 149.857 92.8569 149.857H100.22L98.6308 157.802H90.2086C88.7459 157.802 87.5602 158.988 87.5602 160.451V171.044C87.5602 172.507 88.7459 173.692 90.2086 173.692H92.8569V194.879C92.8569 196.342 94.0426 197.527 95.5053 197.527H119.34C120.803 197.527 121.989 196.342 121.989 194.879V173.692H125.927L130.838 180.534C131.336 181.227 132.136 181.637 132.989 181.637H137.879V255.791H129.934C128.471 255.791 127.285 256.977 127.285 258.44V269.033C127.285 270.496 128.471 271.681 129.934 271.681H161.714C163.177 271.681 164.362 270.496 164.362 269.033V258.44C164.362 256.977 163.177 255.791 161.714 255.791H153.769V181.637H172.307V189.582H159.066C157.603 189.582 156.417 190.768 156.417 192.231V200.176C156.417 201.639 157.603 202.824 159.066 202.824H172.307V205.473C172.307 206.935 173.493 208.121 174.956 208.121H182.901C184.364 208.121 185.549 206.935 185.549 205.473V202.824H186.405L191.035 214.401C191.438 215.406 192.411 216.066 193.494 216.066H212.033C212.901 216.066 213.715 215.64 214.209 214.926C214.704 214.212 214.817 213.301 214.512 212.488L206.567 191.301C206.18 190.267 205.191 189.582 204.088 189.582H185.549V181.637H201.439C202.902 181.637 204.088 180.452 204.088 178.989V160.451C204.088 158.988 202.902 157.802 201.439 157.802H195.403L193.797 152.984L200.91 143.501C201.512 142.699 201.608 141.625 201.16 140.728C200.711 139.83 199.794 139.264 198.791 139.264H159.066C158.062 139.264 157.146 139.83 156.697 140.728C156.248 141.625 156.345 142.699 156.947 143.501L164.059 152.984L162.453 157.802H153.769V149.857C153.769 148.394 152.583 147.209 151.121 147.209H140.527C139.065 147.209 137.879 148.394 137.879 149.857V157.802H116.215L114.626 149.857H121.989C122.032 149.857 122.076 149.856 122.119 149.854C123.792 151.494 126.082 152.506 128.61 152.506C133.729 152.506 137.879 148.356 137.879 143.236C137.879 138.117 133.729 133.967 128.61 133.967C126.082 133.967 123.792 134.978 122.119 136.619C122.076 136.616 122.032 136.615 121.989 136.615H92.8569C92.8132 136.615 92.7695 136.616 92.7263 136.619ZM82.2635 143.236C82.2635 141.042 84.0421 139.264 86.236 139.264C88.4299 139.264 90.2086 141.042 90.2086 143.236C90.2086 145.43 88.4299 147.209 86.236 147.209C84.0421 147.209 82.2635 145.43 82.2635 143.236ZM185.549 194.879V197.527H188.198C189.28 197.527 190.254 198.187 190.657 199.192L195.287 210.769H208.211L202.252 194.879H185.549ZM172.307 197.527V194.879H161.714V197.527H172.307ZM148.472 152.506V157.802H143.176V152.506H148.472ZM180.253 181.637H177.604V202.824H180.253V181.637ZM198.791 176.341V163.099H92.8569V168.396H127.285C128.139 168.396 128.939 168.806 129.437 169.499L134.348 176.341H198.791ZM164.362 144.56H193.494L189.522 149.857H168.335L164.362 144.56ZM168.037 157.802H189.82L188.937 155.154H168.92L168.037 157.802ZM98.1536 192.231V189.582H116.692V192.231H98.1536ZM116.692 181.637H98.1536V184.286H116.692V181.637ZM98.1536 176.341V173.692H116.692V176.341H98.1536ZM95.5053 144.56H119.34V141.912H95.5053V144.56ZM128.61 139.264C126.416 139.264 124.637 141.042 124.637 143.236C124.637 145.43 126.416 147.209 128.61 147.209C130.804 147.209 132.582 145.43 132.582 143.236C132.582 141.042 130.804 139.264 128.61 139.264ZM109.224 149.857H105.621L104.032 157.802H110.813L109.224 149.857ZM148.472 181.637H143.176V255.791H148.472V181.637ZM132.582 261.088H159.066V266.385H132.582V261.088Z" fill="#094780"/>
<rect x="14" width="264" height="102" rx="27" fill="#094780"/>
<path d="M55.0429 19.5C59.1962 19.5 62.4046 20.5617 64.6679 22.685C66.9312 24.8083 68.0629 27.9 68.0629 31.96C68.0629 36.02 66.9312 39.1117 64.6679 41.235C62.4046 43.3583 59.1962 44.42 55.0429 44.42C50.8896 44.42 47.6812 43.37 45.4179 41.27C43.1779 39.1467 42.0579 36.0433 42.0579 31.96C42.0579 27.8767 43.1779 24.785 45.4179 22.685C47.6812 20.5617 50.8896 19.5 55.0429 19.5ZM55.0429 25.275C53.3862 25.275 52.1262 25.7767 51.2629 26.78C50.3996 27.7833 49.9679 29.1367 49.9679 30.84V33.08C49.9679 34.7833 50.3996 36.1367 51.2629 37.14C52.1262 38.1433 53.3862 38.645 55.0429 38.645C56.6996 38.645 57.9596 38.1433 58.8229 37.14C59.7096 36.1367 60.1529 34.7833 60.1529 33.08V30.84C60.1529 29.1367 59.7096 27.7833 58.8229 26.78C57.9596 25.7767 56.6996 25.275 55.0429 25.275ZM92.9132 44V35.32C92.9132 34.2467 92.9482 33.15 93.0182 32.03C93.1115 30.8867 93.2049 29.93 93.2982 29.16C93.3915 28.39 93.4499 27.9 93.4732 27.69H93.3332L88.8882 44H82.8332L78.3532 27.725H78.2132C78.2365 27.935 78.2949 28.425 78.3882 29.195C78.5049 29.9417 78.6099 30.8867 78.7032 32.03C78.7965 33.15 78.8432 34.2467 78.8432 35.32V44H71.7382V19.92H82.6582L86.2982 33.815H86.4382L90.0432 19.92H100.578V44H92.9132ZM121.31 19.92C122.523 19.92 123.632 20.1767 124.635 20.69C125.662 21.18 126.467 21.88 127.05 22.79C127.657 23.7 127.96 24.715 127.96 25.835C127.96 28.7983 126.618 30.665 123.935 31.435V31.575C126.992 32.275 128.52 34.2817 128.52 37.595C128.52 38.855 128.205 39.975 127.575 40.955C126.968 41.9117 126.128 42.6583 125.055 43.195C123.982 43.7317 122.803 44 121.52 44H105.28V19.92H121.31ZM113.015 29.3H118.335C118.848 29.3 119.268 29.125 119.595 28.775C119.945 28.4017 120.12 27.9467 120.12 27.41V27.06C120.12 26.5467 119.945 26.115 119.595 25.765C119.245 25.3917 118.825 25.205 118.335 25.205H113.015V29.3ZM113.015 38.4H118.895C119.408 38.4 119.828 38.225 120.155 37.875C120.505 37.5017 120.68 37.0467 120.68 36.51V36.16C120.68 35.6233 120.505 35.18 120.155 34.83C119.828 34.4567 119.408 34.27 118.895 34.27H113.015V38.4ZM155.376 27.305C155.376 28.775 154.979 30.105 154.186 31.295C153.393 32.485 152.238 33.36 150.721 33.92L156.076 44H147.396L143.126 35.215H140.256V44H132.521V19.92H147.256C148.983 19.92 150.453 20.2583 151.666 20.935C152.903 21.5883 153.824 22.4867 154.431 23.63C155.061 24.75 155.376 25.975 155.376 27.305ZM147.501 27.62C147.501 26.99 147.291 26.465 146.871 26.045C146.451 25.625 145.938 25.415 145.331 25.415H140.256V29.86H145.331C145.938 29.86 146.451 29.65 146.871 29.23C147.291 28.7867 147.501 28.25 147.501 27.62ZM159.762 19.92H180.587V25.695H167.497V29.02H178.697V34.55H167.497V38.225H180.832V44H159.762V19.92ZM185.371 44V19.92H193.106V44H185.371ZM221.48 27.305C221.48 28.775 221.083 30.105 220.29 31.295C219.496 32.485 218.341 33.36 216.825 33.92L222.18 44H213.5L209.23 35.215H206.36V44H198.625V19.92H213.36C215.086 19.92 216.556 20.2583 217.77 20.935C219.006 21.5883 219.928 22.4867 220.535 23.63C221.165 24.75 221.48 25.975 221.48 27.305ZM213.605 27.62C213.605 26.99 213.395 26.465 212.975 26.045C212.555 25.625 212.041 25.415 211.435 25.415H206.36V29.86H211.435C212.041 29.86 212.555 29.65 212.975 29.23C213.395 28.7867 213.605 28.25 213.605 27.62ZM242.001 44L240.986 40.605H232.551L231.536 44H223.626L232.411 19.92H241.406L250.191 44H242.001ZM234.161 35.215H239.376L236.856 26.64H236.716L234.161 35.215ZM79.9922 57.92C88.4155 57.92 92.6272 61.9333 92.6272 69.96C92.6272 77.9867 88.4155 82 79.9922 82H69.5622V57.92H79.9922ZM77.2972 76.225H79.8522C83.0955 76.225 84.7172 74.4867 84.7172 71.01V68.91C84.7172 65.4333 83.0955 63.695 79.8522 63.695H77.2972V76.225ZM97.1534 82V57.92H104.888V82H97.1534ZM133.262 65.305C133.262 66.775 132.865 68.105 132.072 69.295C131.279 70.485 130.124 71.36 128.607 71.92L133.962 82H125.282L121.012 73.215H118.142V82H110.407V57.92H125.142C126.869 57.92 128.339 58.2583 129.552 58.935C130.789 59.5883 131.71 60.4867 132.317 61.63C132.947 62.75 133.262 63.975 133.262 65.305ZM125.387 65.62C125.387 64.99 125.177 64.465 124.757 64.045C124.337 63.625 123.824 63.415 123.217 63.415H118.142V67.86H123.217C123.824 67.86 124.337 67.65 124.757 67.23C125.177 66.7867 125.387 66.25 125.387 65.62ZM137.648 57.92H158.473V63.695H145.383V67.02H156.583V72.55H145.383V76.225H158.718V82H137.648V57.92ZM163.257 82V57.92H170.992V82H163.257ZM190.37 64.08V82H182.635V64.08H174.725V57.92H198.245V64.08H190.37ZM215.512 82L214.497 78.605H206.062L205.047 82H197.137L205.922 57.92H214.917L223.702 82H215.512ZM207.672 73.215H212.887L210.367 64.64H210.227L207.672 73.215Z" fill="white"/>
<path d="M55.0429 19.5C59.1962 19.5 62.4046 20.5617 64.6679 22.685C66.9312 24.8083 68.0629 27.9 68.0629 31.96C68.0629 36.02 66.9312 39.1117 64.6679 41.235C62.4046 43.3583 59.1962 44.42 55.0429 44.42C50.8896 44.42 47.6812 43.37 45.4179 41.27C43.1779 39.1467 42.0579 36.0433 42.0579 31.96C42.0579 27.8767 43.1779 24.785 45.4179 22.685C47.6812 20.5617 50.8896 19.5 55.0429 19.5ZM55.0429 25.275C53.3862 25.275 52.1262 25.7767 51.2629 26.78C50.3996 27.7833 49.9679 29.1367 49.9679 30.84V33.08C49.9679 34.7833 50.3996 36.1367 51.2629 37.14C52.1262 38.1433 53.3862 38.645 55.0429 38.645C56.6996 38.645 57.9596 38.1433 58.8229 37.14C59.7096 36.1367 60.1529 34.7833 60.1529 33.08V30.84C60.1529 29.1367 59.7096 27.7833 58.8229 26.78C57.9596 25.7767 56.6996 25.275 55.0429 25.275ZM92.9132 44V35.32C92.9132 34.2467 92.9482 33.15 93.0182 32.03C93.1115 30.8867 93.2049 29.93 93.2982 29.16C93.3915 28.39 93.4499 27.9 93.4732 27.69H93.3332L88.8882 44H82.8332L78.3532 27.725H78.2132C78.2365 27.935 78.2949 28.425 78.3882 29.195C78.5049 29.9417 78.6099 30.8867 78.7032 32.03C78.7965 33.15 78.8432 34.2467 78.8432 35.32V44H71.7382V19.92H82.6582L86.2982 33.815H86.4382L90.0432 19.92H100.578V44H92.9132ZM121.31 19.92C122.523 19.92 123.632 20.1767 124.635 20.69C125.662 21.18 126.467 21.88 127.05 22.79C127.657 23.7 127.96 24.715 127.96 25.835C127.96 28.7983 126.618 30.665 123.935 31.435V31.575C126.992 32.275 128.52 34.2817 128.52 37.595C128.52 38.855 128.205 39.975 127.575 40.955C126.968 41.9117 126.128 42.6583 125.055 43.195C123.982 43.7317 122.803 44 121.52 44H105.28V19.92H121.31ZM113.015 29.3H118.335C118.848 29.3 119.268 29.125 119.595 28.775C119.945 28.4017 120.12 27.9467 120.12 27.41V27.06C120.12 26.5467 119.945 26.115 119.595 25.765C119.245 25.3917 118.825 25.205 118.335 25.205H113.015V29.3ZM113.015 38.4H118.895C119.408 38.4 119.828 38.225 120.155 37.875C120.505 37.5017 120.68 37.0467 120.68 36.51V36.16C120.68 35.6233 120.505 35.18 120.155 34.83C119.828 34.4567 119.408 34.27 118.895 34.27H113.015V38.4ZM155.376 27.305C155.376 28.775 154.979 30.105 154.186 31.295C153.393 32.485 152.238 33.36 150.721 33.92L156.076 44H147.396L143.126 35.215H140.256V44H132.521V19.92H147.256C148.983 19.92 150.453 20.2583 151.666 20.935C152.903 21.5883 153.824 22.4867 154.431 23.63C155.061 24.75 155.376 25.975 155.376 27.305ZM147.501 27.62C147.501 26.99 147.291 26.465 146.871 26.045C146.451 25.625 145.938 25.415 145.331 25.415H140.256V29.86H145.331C145.938 29.86 146.451 29.65 146.871 29.23C147.291 28.7867 147.501 28.25 147.501 27.62ZM159.762 19.92H180.587V25.695H167.497V29.02H178.697V34.55H167.497V38.225H180.832V44H159.762V19.92ZM185.371 44V19.92H193.106V44H185.371ZM221.48 27.305C221.48 28.775 221.083 30.105 220.29 31.295C219.496 32.485 218.341 33.36 216.825 33.92L222.18 44H213.5L209.23 35.215H206.36V44H198.625V19.92H213.36C215.086 19.92 216.556 20.2583 217.77 20.935C219.006 21.5883 219.928 22.4867 220.535 23.63C221.165 24.75 221.48 25.975 221.48 27.305ZM213.605 27.62C213.605 26.99 213.395 26.465 212.975 26.045C212.555 25.625 212.041 25.415 211.435 25.415H206.36V29.86H211.435C212.041 29.86 212.555 29.65 212.975 29.23C213.395 28.7867 213.605 28.25 213.605 27.62ZM242.001 44L240.986 40.605H232.551L231.536 44H223.626L232.411 19.92H241.406L250.191 44H242.001ZM234.161 35.215H239.376L236.856 26.64H236.716L234.161 35.215ZM79.9922 57.92C88.4155 57.92 92.6272 61.9333 92.6272 69.96C92.6272 77.9867 88.4155 82 79.9922 82H69.5622V57.92H79.9922ZM77.2972 76.225H79.8522C83.0955 76.225 84.7172 74.4867 84.7172 71.01V68.91C84.7172 65.4333 83.0955 63.695 79.8522 63.695H77.2972V76.225ZM97.1534 82V57.92H104.888V82H97.1534ZM133.262 65.305C133.262 66.775 132.865 68.105 132.072 69.295C131.279 70.485 130.124 71.36 128.607 71.92L133.962 82H125.282L121.012 73.215H118.142V82H110.407V57.92H125.142C126.869 57.92 128.339 58.2583 129.552 58.935C130.789 59.5883 131.71 60.4867 132.317 61.63C132.947 62.75 133.262 63.975 133.262 65.305ZM125.387 65.62C125.387 64.99 125.177 64.465 124.757 64.045C124.337 63.625 123.824 63.415 123.217 63.415H118.142V67.86H123.217C123.824 67.86 124.337 67.65 124.757 67.23C125.177 66.7867 125.387 66.25 125.387 65.62ZM137.648 57.92H158.473V63.695H145.383V67.02H156.583V72.55H145.383V76.225H158.718V82H137.648V57.92ZM163.257 82V57.92H170.992V82H163.257ZM190.37 64.08V82H182.635V64.08H174.725V57.92H198.245V64.08H190.37ZM215.512 82L214.497 78.605H206.062L205.047 82H197.137L205.922 57.92H214.917L223.702 82H215.512ZM207.672 73.215H212.887L210.367 64.64H210.227L207.672 73.215Z" fill="white"/>
</svg>
